<svg width="101" height="32" version="1.1" viewBox="0 0 57.497 20.962" xmlns="http://www.w3.org/2000/svg"><defs><clipPath id="clipPath849"><path d="M 0,119.747 H 376.342 V 0 H 0 Z"></path></clipPath></defs><g transform="matrix(.35278 0 0 -.35278 -11.523 31.565)" clip-path="url(#clipPath849)"><g fill="#fff"><g transform="translate(79.14 86.902)"><path d="m0 0-1.716-9.514c-0.156-0.858-0.936-1.559-1.794-1.559h-15.751c-2.808 0-3.899-0.936-4.445-3.9l-1.013-5.614h19.182c0.78 0 1.326-0.546 1.326-1.326v-0.233l-1.637-9.202c-0.157-0.858-0.936-1.56-1.794-1.56h-19.183l-3.821-21.678c-0.156-0.858-1.014-1.56-1.872-1.56h-12.711c-0.78 0-1.248 0.546-1.248 1.248v0.312l6.94 39.613c2.73 15.83 12.634 17.546 23.083 17.546 7.564 0 12.243-0.623 15.128-1.013 0.857-0.079 1.326-0.546 1.326-1.248z" fill="#fff"></path></g><g transform="translate(146.44 86.98)"><path d="m0 0-1.637-9.514c-0.157-0.858-1.014-1.559-1.872-1.559h-15.751c-2.807 0-3.9-0.936-4.446-3.9l-1.013-5.692h19.183c0.78 0 1.326-0.546 1.326-1.325v-0.234l-1.638-9.202c-0.156-0.858-0.937-1.56-1.794-1.56h-19.183l-1.17-6.472c-0.077-0.624-0.155-1.092-0.155-1.56 0-1.794 0.936-2.34 3.196-2.34h15.753c0.78 0 1.325-0.546 1.325-1.325v-0.234l-1.716-9.514c-0.156-0.935-0.78-1.403-1.793-1.559-3.041-0.39-7.797-0.936-15.363-0.936-9.124 0-17.466 3.275-17.466 13.491 0 1.248 0.155 2.573 0.389 3.977l4.289 24.485c2.729 15.753 12.088 17.468 23.083 17.468 7.563 0 12.32-0.546 15.206-0.936 0.858-0.077 1.247-0.467 1.247-1.247z" fill="#fff"></path></g><g transform="translate(195.57 85.889)"><path d="m0 0-1.794-9.826c-0.156-0.935-0.469-1.247-1.247-1.247h-0.235c-2.962 0.156-9.202 0.701-14.972 0.701-7.798 0-11.073-2.339-12.788-11.697l-1.482-8.265c-0.312-1.95-0.467-3.51-0.467-4.914 0-6.004 2.963-7.017 5.848-7.017 1.482 0 3.041 0.078 4.367 0.233l2.807 15.986c0.155 0.858 0.858 1.56 1.715 1.56h12.321c0.78 0 1.326-0.545 1.326-1.326v-0.234l-4.601-26.122c-0.234-1.171-0.624-1.561-1.949-1.794-4.68-0.936-10.84-1.872-18.404-1.872-8.734 0-19.573 5.069-19.573 19.417 0 1.872 0.157 3.977 0.547 6.161l1.481 8.187c4.133 22.693 17.701 25.655 29.163 25.655 8.111 0 13.648-1.247 16.69-2.104 0.778-0.235 1.324-0.391 1.324-1.093 0-0.077-0.077-0.234-0.077-0.389" fill="#fff"></path></g><g transform="translate(102.2 87.213)"><path d="m0 0c0.155 1.012-0.468 1.481-1.327 1.481h-12.787c-0.858 0-1.637-0.623-1.794-1.481l-2.437-13.841 17.338 8.125z" fill="#fff"></path></g><g transform="translate(82.766 67.171)"><path d="m0 0-6.138-34.853c-0.157-0.779 0.312-1.56 1.248-1.56h12.787c1.17 0 1.716 0.703 1.872 1.56l7.57 42.978z" fill="#fff"></path></g></g></g></svg>